<mxfile host="app.diagrams.net" modified="2022-12-11T21:23:36.736Z" agent="5.0 (Windows)" version="20.6.2" etag="VMizDvuuCCruQx6JDPqr" type="github">
  <diagram id="cazoWzVYaCpYhp44iTC1" name="Page-1">
    <mxGraphModel dx="1245" dy="752" grid="0" gridSize="10" guides="1" tooltips="1" connect="1" arrows="1" fold="1" page="1" pageScale="1" pageWidth="1400" pageHeight="850" math="0" shadow="0">
      <root>
        <mxCell id="0" />
        <mxCell id="1" parent="0" />
        <mxCell id="tXiR94LrtjB0A9zo9EqJ-2" value="&lt;div&gt;&lt;br&gt;&lt;/div&gt;&lt;div&gt;&lt;br&gt;&lt;/div&gt;" style="endArrow=block;endSize=16;endFill=0;html=1;rounded=0;" edge="1" parent="1">
          <mxGeometry width="160" relative="1" as="geometry">
            <mxPoint x="88" y="275.5" as="sourcePoint" />
            <mxPoint x="190" y="276" as="targetPoint" />
          </mxGeometry>
        </mxCell>
        <mxCell id="tXiR94LrtjB0A9zo9EqJ-3" value="" style="rhombus;whiteSpace=wrap;html=1;" vertex="1" parent="1">
          <mxGeometry x="190" y="261" width="30" height="30" as="geometry" />
        </mxCell>
        <mxCell id="tXiR94LrtjB0A9zo9EqJ-8" value="" style="endArrow=classic;html=1;rounded=0;strokeColor=default;strokeWidth=1;exitX=0.5;exitY=0;exitDx=0;exitDy=0;" edge="1" parent="1" source="tXiR94LrtjB0A9zo9EqJ-3">
          <mxGeometry width="50" height="50" relative="1" as="geometry">
            <mxPoint x="367" y="378" as="sourcePoint" />
            <mxPoint x="235" y="212" as="targetPoint" />
            <Array as="points">
              <mxPoint x="205" y="212" />
            </Array>
          </mxGeometry>
        </mxCell>
        <mxCell id="tXiR94LrtjB0A9zo9EqJ-9" value="Search Product" style="rounded=1;whiteSpace=wrap;html=1;" vertex="1" parent="1">
          <mxGeometry x="236" y="186" width="120" height="60" as="geometry" />
        </mxCell>
        <mxCell id="tXiR94LrtjB0A9zo9EqJ-10" value="" style="endArrow=classic;html=1;rounded=0;strokeColor=default;strokeWidth=1;exitX=1;exitY=0.5;exitDx=0;exitDy=0;" edge="1" parent="1" source="tXiR94LrtjB0A9zo9EqJ-9">
          <mxGeometry width="50" height="50" relative="1" as="geometry">
            <mxPoint x="367" y="378" as="sourcePoint" />
            <mxPoint x="373" y="216" as="targetPoint" />
            <Array as="points">
              <mxPoint x="369" y="216" />
            </Array>
          </mxGeometry>
        </mxCell>
        <mxCell id="tXiR94LrtjB0A9zo9EqJ-11" value="" style="rhombus;whiteSpace=wrap;html=1;" vertex="1" parent="1">
          <mxGeometry x="373" y="201.5" width="29" height="29" as="geometry" />
        </mxCell>
        <mxCell id="tXiR94LrtjB0A9zo9EqJ-12" value="&lt;i&gt;Found&lt;/i&gt;?" style="text;html=1;align=center;verticalAlign=middle;resizable=0;points=[];autosize=1;strokeColor=none;fillColor=none;" vertex="1" parent="1">
          <mxGeometry x="357.5" y="175.5" width="60" height="26" as="geometry" />
        </mxCell>
        <mxCell id="tXiR94LrtjB0A9zo9EqJ-13" value="" style="endArrow=classic;html=1;rounded=0;strokeColor=default;strokeWidth=1;exitX=1;exitY=0.5;exitDx=0;exitDy=0;startArrow=none;" edge="1" parent="1" source="tXiR94LrtjB0A9zo9EqJ-14">
          <mxGeometry width="50" height="50" relative="1" as="geometry">
            <mxPoint x="367" y="378" as="sourcePoint" />
            <mxPoint x="472" y="241" as="targetPoint" />
            <Array as="points">
              <mxPoint x="472" y="215" />
            </Array>
          </mxGeometry>
        </mxCell>
        <mxCell id="tXiR94LrtjB0A9zo9EqJ-14" value="Yes" style="text;html=1;align=center;verticalAlign=middle;resizable=0;points=[];autosize=1;strokeColor=none;fillColor=none;" vertex="1" parent="1">
          <mxGeometry x="415" y="201.5" width="38" height="26" as="geometry" />
        </mxCell>
        <mxCell id="tXiR94LrtjB0A9zo9EqJ-15" value="" style="endArrow=none;html=1;rounded=0;strokeColor=default;strokeWidth=1;exitX=1;exitY=0.5;exitDx=0;exitDy=0;" edge="1" parent="1" source="tXiR94LrtjB0A9zo9EqJ-11" target="tXiR94LrtjB0A9zo9EqJ-14">
          <mxGeometry width="50" height="50" relative="1" as="geometry">
            <mxPoint x="402" y="216" as="sourcePoint" />
            <mxPoint x="458" y="241" as="targetPoint" />
            <Array as="points" />
          </mxGeometry>
        </mxCell>
        <mxCell id="tXiR94LrtjB0A9zo9EqJ-16" value="View Product" style="rounded=1;whiteSpace=wrap;html=1;" vertex="1" parent="1">
          <mxGeometry x="413" y="243" width="120" height="60" as="geometry" />
        </mxCell>
        <mxCell id="tXiR94LrtjB0A9zo9EqJ-17" value="" style="endArrow=classic;html=1;rounded=0;strokeColor=default;strokeWidth=1;exitX=1;exitY=0.5;exitDx=0;exitDy=0;" edge="1" parent="1" source="tXiR94LrtjB0A9zo9EqJ-3">
          <mxGeometry width="50" height="50" relative="1" as="geometry">
            <mxPoint x="398" y="307" as="sourcePoint" />
            <mxPoint x="258" y="298" as="targetPoint" />
            <Array as="points">
              <mxPoint x="258" y="276" />
            </Array>
          </mxGeometry>
        </mxCell>
        <mxCell id="tXiR94LrtjB0A9zo9EqJ-18" value="Browse" style="rounded=1;whiteSpace=wrap;html=1;" vertex="1" parent="1">
          <mxGeometry x="220" y="299" width="73" height="41" as="geometry" />
        </mxCell>
        <mxCell id="tXiR94LrtjB0A9zo9EqJ-20" value="" style="endArrow=classic;html=1;rounded=0;strokeColor=default;strokeWidth=1;entryX=1;entryY=0.5;entryDx=0;entryDy=0;startArrow=none;" edge="1" parent="1" target="tXiR94LrtjB0A9zo9EqJ-18">
          <mxGeometry width="50" height="50" relative="1" as="geometry">
            <mxPoint x="333" y="318" as="sourcePoint" />
            <mxPoint x="388" y="321" as="targetPoint" />
            <Array as="points" />
          </mxGeometry>
        </mxCell>
        <mxCell id="tXiR94LrtjB0A9zo9EqJ-22" value="" style="endArrow=none;html=1;rounded=0;strokeColor=default;strokeWidth=1;exitX=0.5;exitY=1;exitDx=0;exitDy=0;startArrow=none;" edge="1" parent="1" source="tXiR94LrtjB0A9zo9EqJ-21">
          <mxGeometry width="50" height="50" relative="1" as="geometry">
            <mxPoint x="387.5" y="230.5" as="sourcePoint" />
            <mxPoint x="333" y="318" as="targetPoint" />
            <Array as="points">
              <mxPoint x="389" y="318" />
            </Array>
          </mxGeometry>
        </mxCell>
        <mxCell id="tXiR94LrtjB0A9zo9EqJ-21" value="No" style="text;html=1;align=center;verticalAlign=middle;resizable=0;points=[];autosize=1;strokeColor=none;fillColor=none;" vertex="1" parent="1">
          <mxGeometry x="370.5" y="250" width="34" height="26" as="geometry" />
        </mxCell>
        <mxCell id="tXiR94LrtjB0A9zo9EqJ-23" value="" style="endArrow=none;html=1;rounded=0;strokeColor=default;strokeWidth=1;exitX=0.5;exitY=1;exitDx=0;exitDy=0;" edge="1" parent="1" source="tXiR94LrtjB0A9zo9EqJ-11" target="tXiR94LrtjB0A9zo9EqJ-21">
          <mxGeometry width="50" height="50" relative="1" as="geometry">
            <mxPoint x="387.5" y="230.5" as="sourcePoint" />
            <mxPoint x="328" y="352" as="targetPoint" />
            <Array as="points" />
          </mxGeometry>
        </mxCell>
        <mxCell id="tXiR94LrtjB0A9zo9EqJ-24" value="" style="endArrow=classic;html=1;rounded=0;strokeColor=default;strokeWidth=1;exitX=0.5;exitY=1;exitDx=0;exitDy=0;entryX=0.5;entryY=1;entryDx=0;entryDy=0;" edge="1" parent="1" source="tXiR94LrtjB0A9zo9EqJ-18" target="tXiR94LrtjB0A9zo9EqJ-16">
          <mxGeometry width="50" height="50" relative="1" as="geometry">
            <mxPoint x="398" y="307" as="sourcePoint" />
            <mxPoint x="475" y="380" as="targetPoint" />
            <Array as="points">
              <mxPoint x="257" y="380" />
              <mxPoint x="473" y="380" />
            </Array>
          </mxGeometry>
        </mxCell>
        <mxCell id="tXiR94LrtjB0A9zo9EqJ-25" value="" style="endArrow=classic;html=1;rounded=0;strokeColor=default;strokeWidth=1;exitX=1;exitY=0.5;exitDx=0;exitDy=0;" edge="1" parent="1" source="tXiR94LrtjB0A9zo9EqJ-16">
          <mxGeometry width="50" height="50" relative="1" as="geometry">
            <mxPoint x="567" y="276" as="sourcePoint" />
            <mxPoint x="562" y="273" as="targetPoint" />
          </mxGeometry>
        </mxCell>
        <mxCell id="tXiR94LrtjB0A9zo9EqJ-26" value="&lt;div&gt;Set up Product&lt;/div&gt;&lt;div&gt;Parameters&lt;br&gt;&lt;/div&gt;" style="rounded=1;whiteSpace=wrap;html=1;" vertex="1" parent="1">
          <mxGeometry x="561" y="243" width="120" height="60" as="geometry" />
        </mxCell>
        <mxCell id="tXiR94LrtjB0A9zo9EqJ-27" value="" style="endArrow=classic;html=1;rounded=0;strokeColor=default;strokeWidth=1;exitX=1;exitY=0.5;exitDx=0;exitDy=0;" edge="1" parent="1" source="tXiR94LrtjB0A9zo9EqJ-26">
          <mxGeometry width="50" height="50" relative="1" as="geometry">
            <mxPoint x="725" y="277.5" as="sourcePoint" />
            <mxPoint x="719" y="273" as="targetPoint" />
          </mxGeometry>
        </mxCell>
        <mxCell id="tXiR94LrtjB0A9zo9EqJ-28" value="Add to Cart" style="rounded=1;whiteSpace=wrap;html=1;" vertex="1" parent="1">
          <mxGeometry x="720" y="243" width="120" height="60" as="geometry" />
        </mxCell>
        <mxCell id="tXiR94LrtjB0A9zo9EqJ-30" value="" style="endArrow=classic;html=1;rounded=0;strokeColor=default;strokeWidth=1;exitX=0.5;exitY=1;exitDx=0;exitDy=0;" edge="1" parent="1" source="tXiR94LrtjB0A9zo9EqJ-28">
          <mxGeometry width="50" height="50" relative="1" as="geometry">
            <mxPoint x="794" y="391" as="sourcePoint" />
            <mxPoint x="780" y="336" as="targetPoint" />
          </mxGeometry>
        </mxCell>
        <mxCell id="tXiR94LrtjB0A9zo9EqJ-31" value="" style="rhombus;whiteSpace=wrap;html=1;" vertex="1" parent="1">
          <mxGeometry x="767.5" y="337" width="25" height="25" as="geometry" />
        </mxCell>
        <mxCell id="tXiR94LrtjB0A9zo9EqJ-32" value="&lt;i&gt;Registered?&lt;/i&gt;" style="text;html=1;align=center;verticalAlign=middle;resizable=0;points=[];autosize=1;strokeColor=none;fillColor=none;" vertex="1" parent="1">
          <mxGeometry x="737.5" y="362" width="85" height="26" as="geometry" />
        </mxCell>
        <mxCell id="tXiR94LrtjB0A9zo9EqJ-33" value="" style="endArrow=classic;html=1;rounded=0;strokeColor=default;strokeWidth=1;exitX=0;exitY=0.5;exitDx=0;exitDy=0;startArrow=none;" edge="1" parent="1" source="tXiR94LrtjB0A9zo9EqJ-34">
          <mxGeometry width="50" height="50" relative="1" as="geometry">
            <mxPoint x="794" y="391" as="sourcePoint" />
            <mxPoint x="681" y="368" as="targetPoint" />
            <Array as="points">
              <mxPoint x="681" y="348" />
            </Array>
          </mxGeometry>
        </mxCell>
        <mxCell id="tXiR94LrtjB0A9zo9EqJ-34" value="No" style="text;html=1;align=center;verticalAlign=middle;resizable=0;points=[];autosize=1;strokeColor=none;fillColor=none;" vertex="1" parent="1">
          <mxGeometry x="712" y="336" width="34" height="26" as="geometry" />
        </mxCell>
        <mxCell id="tXiR94LrtjB0A9zo9EqJ-35" value="" style="endArrow=none;html=1;rounded=0;strokeColor=default;strokeWidth=1;exitX=0;exitY=0.5;exitDx=0;exitDy=0;" edge="1" parent="1" source="tXiR94LrtjB0A9zo9EqJ-31" target="tXiR94LrtjB0A9zo9EqJ-34">
          <mxGeometry width="50" height="50" relative="1" as="geometry">
            <mxPoint x="767.5" y="349.5" as="sourcePoint" />
            <mxPoint x="681" y="362" as="targetPoint" />
            <Array as="points" />
          </mxGeometry>
        </mxCell>
        <mxCell id="tXiR94LrtjB0A9zo9EqJ-36" value="&lt;div&gt;User &lt;br&gt;&lt;/div&gt;&lt;div&gt;Registration&lt;br&gt;&lt;/div&gt;" style="rounded=1;whiteSpace=wrap;html=1;" vertex="1" parent="1">
          <mxGeometry x="638" y="370" width="88" height="46" as="geometry" />
        </mxCell>
        <mxCell id="tXiR94LrtjB0A9zo9EqJ-37" value="" style="endArrow=classic;html=1;rounded=0;strokeColor=default;strokeWidth=1;entryX=1;entryY=0.5;entryDx=0;entryDy=0;startArrow=none;" edge="1" parent="1" source="tXiR94LrtjB0A9zo9EqJ-39" target="tXiR94LrtjB0A9zo9EqJ-38">
          <mxGeometry width="50" height="50" relative="1" as="geometry">
            <mxPoint x="857" y="352" as="sourcePoint" />
            <mxPoint x="876" y="497" as="targetPoint" />
            <Array as="points">
              <mxPoint x="876" y="350" />
              <mxPoint x="876" y="473" />
            </Array>
          </mxGeometry>
        </mxCell>
        <mxCell id="tXiR94LrtjB0A9zo9EqJ-38" value="View Cart" style="rounded=1;whiteSpace=wrap;html=1;" vertex="1" parent="1">
          <mxGeometry x="741" y="450" width="105" height="45" as="geometry" />
        </mxCell>
        <mxCell id="tXiR94LrtjB0A9zo9EqJ-39" value="Yes" style="text;html=1;align=center;verticalAlign=middle;resizable=0;points=[];autosize=1;strokeColor=none;fillColor=none;" vertex="1" parent="1">
          <mxGeometry x="820" y="336" width="38" height="26" as="geometry" />
        </mxCell>
        <mxCell id="tXiR94LrtjB0A9zo9EqJ-40" value="" style="endArrow=none;html=1;rounded=0;strokeColor=default;strokeWidth=1;exitX=1;exitY=0.5;exitDx=0;exitDy=0;" edge="1" parent="1" source="tXiR94LrtjB0A9zo9EqJ-31" target="tXiR94LrtjB0A9zo9EqJ-39">
          <mxGeometry width="50" height="50" relative="1" as="geometry">
            <mxPoint x="792.5" y="349.5" as="sourcePoint" />
            <mxPoint x="825" y="350" as="targetPoint" />
            <Array as="points" />
          </mxGeometry>
        </mxCell>
        <mxCell id="tXiR94LrtjB0A9zo9EqJ-41" value="" style="endArrow=classic;html=1;rounded=0;strokeColor=default;strokeWidth=1;exitX=1;exitY=0.5;exitDx=0;exitDy=0;entryX=0.5;entryY=0;entryDx=0;entryDy=0;" edge="1" parent="1" source="tXiR94LrtjB0A9zo9EqJ-36" target="tXiR94LrtjB0A9zo9EqJ-38">
          <mxGeometry width="50" height="50" relative="1" as="geometry">
            <mxPoint x="794" y="391" as="sourcePoint" />
            <mxPoint x="821" y="393" as="targetPoint" />
            <Array as="points">
              <mxPoint x="794" y="393" />
            </Array>
          </mxGeometry>
        </mxCell>
        <mxCell id="tXiR94LrtjB0A9zo9EqJ-42" value="" style="endArrow=classic;html=1;rounded=0;strokeColor=default;strokeWidth=1;entryX=0;entryY=0.5;entryDx=0;entryDy=0;startArrow=none;exitX=0.994;exitY=0.519;exitDx=0;exitDy=0;exitPerimeter=0;" edge="1" parent="1" source="tXiR94LrtjB0A9zo9EqJ-43" target="tXiR94LrtjB0A9zo9EqJ-38">
          <mxGeometry width="50" height="50" relative="1" as="geometry">
            <mxPoint x="207" y="467" as="sourcePoint" />
            <mxPoint x="531" y="439" as="targetPoint" />
            <Array as="points">
              <mxPoint x="474" y="473" />
            </Array>
          </mxGeometry>
        </mxCell>
        <mxCell id="tXiR94LrtjB0A9zo9EqJ-43" value="View previously saved cart" style="text;html=1;align=center;verticalAlign=middle;resizable=0;points=[];autosize=1;strokeColor=none;fillColor=none;" vertex="1" parent="1">
          <mxGeometry x="262" y="459.5" width="161" height="26" as="geometry" />
        </mxCell>
        <mxCell id="tXiR94LrtjB0A9zo9EqJ-44" value="" style="endArrow=none;html=1;rounded=0;strokeColor=default;strokeWidth=1;exitX=0.467;exitY=1;exitDx=0;exitDy=0;exitPerimeter=0;entryX=-0.012;entryY=0.494;entryDx=0;entryDy=0;entryPerimeter=0;" edge="1" parent="1" source="tXiR94LrtjB0A9zo9EqJ-3" target="tXiR94LrtjB0A9zo9EqJ-43">
          <mxGeometry width="50" height="50" relative="1" as="geometry">
            <mxPoint x="204.01" y="291" as="sourcePoint" />
            <mxPoint x="204" y="482" as="targetPoint" />
            <Array as="points">
              <mxPoint x="204" y="472" />
            </Array>
          </mxGeometry>
        </mxCell>
        <mxCell id="tXiR94LrtjB0A9zo9EqJ-45" value="" style="endArrow=classic;html=1;rounded=0;strokeColor=default;strokeWidth=1;exitX=0.5;exitY=1;exitDx=0;exitDy=0;" edge="1" parent="1" source="tXiR94LrtjB0A9zo9EqJ-38">
          <mxGeometry width="50" height="50" relative="1" as="geometry">
            <mxPoint x="814" y="518" as="sourcePoint" />
            <mxPoint x="794" y="532" as="targetPoint" />
          </mxGeometry>
        </mxCell>
        <mxCell id="tXiR94LrtjB0A9zo9EqJ-46" value="" style="rhombus;whiteSpace=wrap;html=1;" vertex="1" parent="1">
          <mxGeometry x="779.75" y="534" width="27.5" height="27" as="geometry" />
        </mxCell>
        <mxCell id="tXiR94LrtjB0A9zo9EqJ-47" value="&lt;i&gt;Cart is Ok?&lt;/i&gt;" style="text;html=1;align=center;verticalAlign=middle;resizable=0;points=[];autosize=1;strokeColor=none;fillColor=none;" vertex="1" parent="1">
          <mxGeometry x="754" y="557" width="79" height="26" as="geometry" />
        </mxCell>
        <mxCell id="tXiR94LrtjB0A9zo9EqJ-48" value="" style="endArrow=classic;html=1;rounded=0;strokeColor=default;strokeWidth=1;exitX=1;exitY=0.5;exitDx=0;exitDy=0;startArrow=none;" edge="1" parent="1" source="tXiR94LrtjB0A9zo9EqJ-49">
          <mxGeometry width="50" height="50" relative="1" as="geometry">
            <mxPoint x="814" y="518" as="sourcePoint" />
            <mxPoint x="848" y="672" as="targetPoint" />
            <Array as="points">
              <mxPoint x="876" y="548" />
              <mxPoint x="876" y="672" />
            </Array>
          </mxGeometry>
        </mxCell>
        <mxCell id="tXiR94LrtjB0A9zo9EqJ-49" value="&lt;div&gt;Yes&lt;/div&gt;" style="text;html=1;align=center;verticalAlign=middle;resizable=0;points=[];autosize=1;strokeColor=none;fillColor=none;" vertex="1" parent="1">
          <mxGeometry x="820" y="534" width="38" height="26" as="geometry" />
        </mxCell>
        <mxCell id="tXiR94LrtjB0A9zo9EqJ-50" value="" style="endArrow=none;html=1;rounded=0;strokeColor=default;strokeWidth=1;exitX=1;exitY=0.5;exitDx=0;exitDy=0;" edge="1" parent="1" source="tXiR94LrtjB0A9zo9EqJ-46" target="tXiR94LrtjB0A9zo9EqJ-49">
          <mxGeometry width="50" height="50" relative="1" as="geometry">
            <mxPoint x="807.25" y="547.5" as="sourcePoint" />
            <mxPoint x="848" y="672" as="targetPoint" />
            <Array as="points" />
          </mxGeometry>
        </mxCell>
        <mxCell id="tXiR94LrtjB0A9zo9EqJ-51" value="" style="endArrow=classic;html=1;rounded=0;strokeColor=default;strokeWidth=1;exitX=0;exitY=0.5;exitDx=0;exitDy=0;startArrow=none;" edge="1" parent="1" source="tXiR94LrtjB0A9zo9EqJ-52">
          <mxGeometry width="50" height="50" relative="1" as="geometry">
            <mxPoint x="814" y="518" as="sourcePoint" />
            <mxPoint x="710" y="548" as="targetPoint" />
          </mxGeometry>
        </mxCell>
        <mxCell id="tXiR94LrtjB0A9zo9EqJ-52" value="No" style="text;html=1;align=center;verticalAlign=middle;resizable=0;points=[];autosize=1;strokeColor=none;fillColor=none;" vertex="1" parent="1">
          <mxGeometry x="733.5" y="534" width="34" height="26" as="geometry" />
        </mxCell>
        <mxCell id="tXiR94LrtjB0A9zo9EqJ-53" value="" style="endArrow=none;html=1;rounded=0;strokeColor=default;strokeWidth=1;exitX=0;exitY=0.5;exitDx=0;exitDy=0;" edge="1" parent="1" source="tXiR94LrtjB0A9zo9EqJ-46" target="tXiR94LrtjB0A9zo9EqJ-52">
          <mxGeometry width="50" height="50" relative="1" as="geometry">
            <mxPoint x="779.75" y="547.5" as="sourcePoint" />
            <mxPoint x="710" y="548" as="targetPoint" />
          </mxGeometry>
        </mxCell>
        <mxCell id="tXiR94LrtjB0A9zo9EqJ-54" value="Update Cart" style="rounded=1;whiteSpace=wrap;html=1;" vertex="1" parent="1">
          <mxGeometry x="592" y="520" width="120" height="60" as="geometry" />
        </mxCell>
        <mxCell id="tXiR94LrtjB0A9zo9EqJ-55" value="" style="endArrow=classic;html=1;rounded=0;strokeColor=default;strokeWidth=1;exitX=0.5;exitY=1;exitDx=0;exitDy=0;" edge="1" parent="1" source="tXiR94LrtjB0A9zo9EqJ-54">
          <mxGeometry width="50" height="50" relative="1" as="geometry">
            <mxPoint x="534" y="539" as="sourcePoint" />
            <mxPoint x="797" y="648" as="targetPoint" />
            <Array as="points">
              <mxPoint x="652" y="619" />
              <mxPoint x="797" y="619" />
            </Array>
          </mxGeometry>
        </mxCell>
        <mxCell id="tXiR94LrtjB0A9zo9EqJ-56" value="Checkout: Pick Address" style="rounded=1;whiteSpace=wrap;html=1;" vertex="1" parent="1">
          <mxGeometry x="745" y="648" width="101" height="42" as="geometry" />
        </mxCell>
        <mxCell id="tXiR94LrtjB0A9zo9EqJ-57" value="" style="endArrow=classic;html=1;rounded=0;strokeColor=default;strokeWidth=1;exitX=0;exitY=0.5;exitDx=0;exitDy=0;" edge="1" parent="1" source="tXiR94LrtjB0A9zo9EqJ-56">
          <mxGeometry width="50" height="50" relative="1" as="geometry">
            <mxPoint x="534" y="539" as="sourcePoint" />
            <mxPoint x="705" y="669" as="targetPoint" />
          </mxGeometry>
        </mxCell>
        <mxCell id="tXiR94LrtjB0A9zo9EqJ-58" value="Checkout: Delivery Type?" style="rounded=1;whiteSpace=wrap;html=1;" vertex="1" parent="1">
          <mxGeometry x="628" y="645" width="77" height="48" as="geometry" />
        </mxCell>
        <mxCell id="tXiR94LrtjB0A9zo9EqJ-59" value="" style="endArrow=classic;html=1;rounded=0;strokeColor=default;strokeWidth=1;exitX=0;exitY=0.5;exitDx=0;exitDy=0;" edge="1" parent="1" source="tXiR94LrtjB0A9zo9EqJ-58">
          <mxGeometry width="50" height="50" relative="1" as="geometry">
            <mxPoint x="434" y="546" as="sourcePoint" />
            <mxPoint x="581" y="669" as="targetPoint" />
          </mxGeometry>
        </mxCell>
        <mxCell id="tXiR94LrtjB0A9zo9EqJ-60" value="Checkout: Payment type AND payment" style="rounded=1;whiteSpace=wrap;html=1;" vertex="1" parent="1">
          <mxGeometry x="461" y="639" width="120" height="60" as="geometry" />
        </mxCell>
        <mxCell id="tXiR94LrtjB0A9zo9EqJ-61" value="" style="endArrow=classic;html=1;rounded=0;strokeColor=default;strokeWidth=1;exitX=0;exitY=0.5;exitDx=0;exitDy=0;" edge="1" parent="1" source="tXiR94LrtjB0A9zo9EqJ-60">
          <mxGeometry width="50" height="50" relative="1" as="geometry">
            <mxPoint x="434" y="546" as="sourcePoint" />
            <mxPoint x="420" y="669" as="targetPoint" />
          </mxGeometry>
        </mxCell>
        <mxCell id="tXiR94LrtjB0A9zo9EqJ-62" value="" style="rhombus;whiteSpace=wrap;html=1;" vertex="1" parent="1">
          <mxGeometry x="386.5" y="653.5" width="31" height="31" as="geometry" />
        </mxCell>
        <mxCell id="tXiR94LrtjB0A9zo9EqJ-63" value="&lt;div&gt;&lt;i&gt;Payment &lt;br&gt;&lt;/i&gt;&lt;/div&gt;&lt;div&gt;&lt;i&gt;Successful?&lt;/i&gt;&lt;/div&gt;" style="text;html=1;align=center;verticalAlign=middle;resizable=0;points=[];autosize=1;strokeColor=none;fillColor=none;" vertex="1" parent="1">
          <mxGeometry x="360" y="683" width="84" height="41" as="geometry" />
        </mxCell>
        <mxCell id="tXiR94LrtjB0A9zo9EqJ-64" value="" style="endArrow=classic;html=1;rounded=0;strokeColor=default;strokeWidth=1;exitX=0.009;exitY=0.571;exitDx=0;exitDy=0;startArrow=none;exitPerimeter=0;" edge="1" parent="1" source="tXiR94LrtjB0A9zo9EqJ-65">
          <mxGeometry width="50" height="50" relative="1" as="geometry">
            <mxPoint x="434" y="546" as="sourcePoint" />
            <mxPoint x="325" y="669" as="targetPoint" />
          </mxGeometry>
        </mxCell>
        <mxCell id="tXiR94LrtjB0A9zo9EqJ-65" value="Yes" style="text;html=1;align=center;verticalAlign=middle;resizable=0;points=[];autosize=1;strokeColor=none;fillColor=none;" vertex="1" parent="1">
          <mxGeometry x="343" y="653.5" width="38" height="26" as="geometry" />
        </mxCell>
        <mxCell id="tXiR94LrtjB0A9zo9EqJ-66" value="" style="endArrow=none;html=1;rounded=0;strokeColor=default;strokeWidth=1;exitX=0;exitY=0.5;exitDx=0;exitDy=0;" edge="1" parent="1" source="tXiR94LrtjB0A9zo9EqJ-62" target="tXiR94LrtjB0A9zo9EqJ-65">
          <mxGeometry width="50" height="50" relative="1" as="geometry">
            <mxPoint x="386.5" y="669" as="sourcePoint" />
            <mxPoint x="325" y="669" as="targetPoint" />
          </mxGeometry>
        </mxCell>
        <mxCell id="tXiR94LrtjB0A9zo9EqJ-67" value="Payment Success Page" style="rounded=1;whiteSpace=wrap;html=1;" vertex="1" parent="1">
          <mxGeometry x="204" y="639" width="120" height="60" as="geometry" />
        </mxCell>
        <mxCell id="tXiR94LrtjB0A9zo9EqJ-68" value="" style="endArrow=classic;html=1;rounded=0;strokeColor=default;strokeWidth=1;exitX=0;exitY=0.5;exitDx=0;exitDy=0;" edge="1" parent="1" source="tXiR94LrtjB0A9zo9EqJ-67">
          <mxGeometry width="50" height="50" relative="1" as="geometry">
            <mxPoint x="434" y="546" as="sourcePoint" />
            <mxPoint x="114" y="669" as="targetPoint" />
          </mxGeometry>
        </mxCell>
        <mxCell id="tXiR94LrtjB0A9zo9EqJ-69" value="" style="ellipse;html=1;shape=endState;fillColor=#000000;strokeColor=#ff0000;" vertex="1" parent="1">
          <mxGeometry x="53" y="639" width="60" height="57" as="geometry" />
        </mxCell>
        <mxCell id="tXiR94LrtjB0A9zo9EqJ-70" value="Payment Failure Page" style="rounded=1;whiteSpace=wrap;html=1;" vertex="1" parent="1">
          <mxGeometry x="482" y="482" width="78" height="40" as="geometry" />
        </mxCell>
        <mxCell id="tXiR94LrtjB0A9zo9EqJ-71" value="" style="endArrow=classic;html=1;rounded=0;strokeColor=default;strokeWidth=1;exitX=0.5;exitY=0;exitDx=0;exitDy=0;entryX=0;entryY=0.5;entryDx=0;entryDy=0;startArrow=none;" edge="1" parent="1" source="tXiR94LrtjB0A9zo9EqJ-72" target="tXiR94LrtjB0A9zo9EqJ-70">
          <mxGeometry width="50" height="50" relative="1" as="geometry">
            <mxPoint x="541" y="544" as="sourcePoint" />
            <mxPoint x="591" y="494" as="targetPoint" />
            <Array as="points">
              <mxPoint x="402" y="502" />
            </Array>
          </mxGeometry>
        </mxCell>
        <mxCell id="tXiR94LrtjB0A9zo9EqJ-72" value="No" style="text;html=1;align=center;verticalAlign=middle;resizable=0;points=[];autosize=1;strokeColor=none;fillColor=none;" vertex="1" parent="1">
          <mxGeometry x="385" y="554" width="34" height="26" as="geometry" />
        </mxCell>
        <mxCell id="tXiR94LrtjB0A9zo9EqJ-73" value="" style="endArrow=none;html=1;rounded=0;strokeColor=default;strokeWidth=1;exitX=0.5;exitY=0;exitDx=0;exitDy=0;entryX=0.461;entryY=1.038;entryDx=0;entryDy=0;entryPerimeter=0;" edge="1" parent="1" source="tXiR94LrtjB0A9zo9EqJ-62" target="tXiR94LrtjB0A9zo9EqJ-72">
          <mxGeometry width="50" height="50" relative="1" as="geometry">
            <mxPoint x="402" y="653.5" as="sourcePoint" />
            <mxPoint x="482" y="502" as="targetPoint" />
            <Array as="points" />
          </mxGeometry>
        </mxCell>
        <mxCell id="tXiR94LrtjB0A9zo9EqJ-74" value="" style="rhombus;whiteSpace=wrap;html=1;" vertex="1" parent="1">
          <mxGeometry x="510" y="565.5" width="22" height="23" as="geometry" />
        </mxCell>
        <mxCell id="tXiR94LrtjB0A9zo9EqJ-75" value="&lt;font style=&quot;font-size: 10px;&quot;&gt;&lt;i&gt;Try again?&lt;/i&gt;&lt;/font&gt;" style="text;html=1;align=center;verticalAlign=middle;resizable=0;points=[];autosize=1;strokeColor=none;fillColor=none;" vertex="1" parent="1">
          <mxGeometry x="444" y="562.5" width="67" height="26" as="geometry" />
        </mxCell>
        <mxCell id="tXiR94LrtjB0A9zo9EqJ-76" value="" style="endArrow=classic;html=1;rounded=0;strokeColor=default;strokeWidth=1;fontSize=10;exitX=0.5;exitY=1;exitDx=0;exitDy=0;entryX=0.5;entryY=0;entryDx=0;entryDy=0;" edge="1" parent="1" source="tXiR94LrtjB0A9zo9EqJ-70" target="tXiR94LrtjB0A9zo9EqJ-74">
          <mxGeometry width="50" height="50" relative="1" as="geometry">
            <mxPoint x="541" y="544" as="sourcePoint" />
            <mxPoint x="591" y="494" as="targetPoint" />
          </mxGeometry>
        </mxCell>
        <mxCell id="tXiR94LrtjB0A9zo9EqJ-77" value="" style="endArrow=classic;html=1;rounded=0;strokeColor=default;strokeWidth=1;fontSize=10;exitX=0.5;exitY=1;exitDx=0;exitDy=0;entryX=0.5;entryY=0;entryDx=0;entryDy=0;startArrow=none;" edge="1" parent="1" source="tXiR94LrtjB0A9zo9EqJ-78" target="tXiR94LrtjB0A9zo9EqJ-60">
          <mxGeometry width="50" height="50" relative="1" as="geometry">
            <mxPoint x="541" y="544" as="sourcePoint" />
            <mxPoint x="591" y="494" as="targetPoint" />
          </mxGeometry>
        </mxCell>
        <mxCell id="tXiR94LrtjB0A9zo9EqJ-78" value="Yes" style="text;html=1;align=center;verticalAlign=middle;resizable=0;points=[];autosize=1;strokeColor=none;fillColor=none;fontSize=10;" vertex="1" parent="1">
          <mxGeometry x="504" y="595" width="34" height="24" as="geometry" />
        </mxCell>
        <mxCell id="tXiR94LrtjB0A9zo9EqJ-79" value="" style="endArrow=none;html=1;rounded=0;strokeColor=default;strokeWidth=1;fontSize=10;exitX=0.5;exitY=1;exitDx=0;exitDy=0;entryX=0.5;entryY=0;entryDx=0;entryDy=0;" edge="1" parent="1" source="tXiR94LrtjB0A9zo9EqJ-74" target="tXiR94LrtjB0A9zo9EqJ-78">
          <mxGeometry width="50" height="50" relative="1" as="geometry">
            <mxPoint x="521" y="588.5" as="sourcePoint" />
            <mxPoint x="521" y="639" as="targetPoint" />
          </mxGeometry>
        </mxCell>
        <mxCell id="tXiR94LrtjB0A9zo9EqJ-85" value="" style="endArrow=classic;html=1;rounded=0;strokeColor=default;strokeWidth=1;fontSize=10;entryX=0;entryY=0.394;entryDx=0;entryDy=0;entryPerimeter=0;startArrow=none;" edge="1" parent="1" source="tXiR94LrtjB0A9zo9EqJ-84" target="tXiR94LrtjB0A9zo9EqJ-54">
          <mxGeometry width="50" height="50" relative="1" as="geometry">
            <mxPoint x="540" y="544" as="sourcePoint" />
            <mxPoint x="576" y="518" as="targetPoint" />
            <Array as="points">
              <mxPoint x="576" y="577" />
              <mxPoint x="576" y="544" />
            </Array>
          </mxGeometry>
        </mxCell>
        <mxCell id="tXiR94LrtjB0A9zo9EqJ-84" value="&lt;div&gt;No&lt;/div&gt;" style="text;html=1;align=center;verticalAlign=middle;resizable=0;points=[];autosize=1;strokeColor=none;fillColor=none;fontSize=10;" vertex="1" parent="1">
          <mxGeometry x="538" y="562.5" width="31" height="24" as="geometry" />
        </mxCell>
        <mxCell id="tXiR94LrtjB0A9zo9EqJ-86" value="" style="endArrow=none;html=1;rounded=0;strokeColor=default;strokeWidth=1;fontSize=10;exitX=1;exitY=0.5;exitDx=0;exitDy=0;" edge="1" parent="1" source="tXiR94LrtjB0A9zo9EqJ-74" target="tXiR94LrtjB0A9zo9EqJ-84">
          <mxGeometry width="50" height="50" relative="1" as="geometry">
            <mxPoint x="532" y="577" as="sourcePoint" />
            <mxPoint x="592" y="543.6400000000001" as="targetPoint" />
            <Array as="points" />
          </mxGeometry>
        </mxCell>
        <mxCell id="tXiR94LrtjB0A9zo9EqJ-88" value="&lt;div&gt;Coffee Order&lt;/div&gt;&lt;div&gt;&amp;nbsp;Start&lt;/div&gt;&lt;div&gt;&lt;br&gt;&lt;/div&gt;" style="text;html=1;align=center;verticalAlign=middle;resizable=0;points=[];autosize=1;strokeColor=none;fillColor=none;fontSize=10;" vertex="1" parent="1">
          <mxGeometry x="35" y="356" width="78" height="48" as="geometry" />
        </mxCell>
        <mxCell id="tXiR94LrtjB0A9zo9EqJ-89" value="" style="endArrow=classic;html=1;rounded=0;strokeColor=default;strokeWidth=1;fontSize=10;exitX=0.474;exitY=0.042;exitDx=0;exitDy=0;exitPerimeter=0;entryX=0.5;entryY=1;entryDx=0;entryDy=0;" edge="1" parent="1" source="tXiR94LrtjB0A9zo9EqJ-88">
          <mxGeometry width="50" height="50" relative="1" as="geometry">
            <mxPoint x="537" y="562" as="sourcePoint" />
            <mxPoint x="71" y="295" as="targetPoint" />
          </mxGeometry>
        </mxCell>
        <mxCell id="tXiR94LrtjB0A9zo9EqJ-90" value="" style="strokeWidth=2;html=1;shape=mxgraph.flowchart.start_2;whiteSpace=wrap;fontSize=10;" vertex="1" parent="1">
          <mxGeometry x="50" y="256.5" width="41" height="39" as="geometry" />
        </mxCell>
      </root>
    </mxGraphModel>
  </diagram>
</mxfile>
